<?xml version="1.0" standalone="no"?>
<!DOCTYPE svg PUBLIC "-//W3C//DTD SVG 20010904//EN"
 "http://www.w3.org/TR/2001/REC-SVG-20010904/DTD/svg10.dtd">
<svg version="1.0" xmlns="http://www.w3.org/2000/svg"
 width="408.000000pt" height="408.000000pt" viewBox="0 0 408.000000 408.000000"
 preserveAspectRatio="xMidYMid meet">
<metadata>
Created by potrace 1.11, written by Peter Selinger 2001-2013
</metadata>
<g transform="translate(0.000000,408.000000) scale(0.100000,-0.100000)"
fill="#000000" stroke="none">
<path d="M40 3435 c-3 -10 -11 -945 -13 -1510 l-2 -769 831 -2 831 -3 64 61
c35 33 92 87 127 120 36 34 67 56 74 52 6 -4 8 -3 5 3 -4 6 39 54 96 106 56
53 159 151 229 219 l127 123 7 396 c7 405 3 512 -19 503 -7 -2 -28 11 -47 31
-30 31 -32 37 -22 60 7 15 8 24 3 21 -5 -4 -11 0 -14 6 -3 10 -8 10 -21 -1
-15 -13 -23 -9 -73 40 -31 30 -62 59 -69 65 -7 7 -10 14 -7 18 4 3 0 6 -8 6
-18 0 -79 61 -79 79 0 7 -4 10 -8 7 -10 -6 -92 69 -92 84 0 5 -5 10 -10 10
-10 0 -103 86 -239 220 l-56 55 -808 0 c-444 1 -807 1 -807 0z m1591 -125 c24
-21 252 -236 358 -338 31 -30 98 -92 149 -139 74 -69 90 -89 81 -100 -9 -11
-8 -12 5 -7 9 3 16 1 16 -4 0 -6 8 -13 19 -17 10 -3 28 -13 38 -23 21 -18 22
-40 25 -677 0 -112 13 -92 -167 -259 -75 -70 -278 -260 -375 -351 -47 -44
-101 -95 -121 -113 l-36 -33 -664 2 c-365 1 -704 3 -754 3 l-90 1 -3 1037 -4
1037 749 1 c746 0 750 0 774 -20z"/>
<path d="M1125 2635 c-34 -33 -103 -98 -155 -145 -51 -47 -116 -106 -144 -132
-28 -26 -54 -48 -58 -48 -14 0 -9 -29 6 -37 8 -4 63 -54 123 -109 59 -56 135
-126 168 -155 33 -29 75 -67 92 -85 l33 -33 59 57 c32 31 81 77 107 101 165
148 246 233 233 243 -11 8 -11 11 -1 15 10 4 10 8 2 18 -6 8 -18 11 -25 9 -8
-4 -85 66 -197 178 l-183 183 -60 -60z m178 -209 c64 -61 113 -114 110 -119
-3 -5 1 -13 8 -18 11 -6 -16 -38 -106 -129 l-121 -121 -69 63 c-38 35 -99 91
-135 125 l-65 63 125 124 c69 69 128 124 131 123 4 -1 58 -51 122 -111z"/>
<path d="M1830 3430 c0 -3 12 -17 26 -31 14 -13 23 -31 21 -40 -3 -12 3 -19
23 -22 16 -4 61 -39 109 -86 46 -45 87 -81 93 -81 5 0 6 -4 3 -10 -3 -5 0 -10
7 -10 7 0 48 -36 92 -80 43 -44 81 -80 83 -80 11 0 31 -28 25 -35 -4 -5 -2 -5
4 -2 6 4 27 -11 46 -33 20 -21 38 -36 42 -33 3 4 6 2 6 -3 0 -6 18 -29 40 -52
22 -22 40 -38 40 -35 0 4 15 -10 34 -30 l34 -37 -2 -454 -3 -453 -83 -82 c-46
-44 -90 -81 -97 -81 -7 0 -13 -7 -13 -14 0 -17 -87 -106 -122 -124 -13 -7 -32
-26 -43 -42 -10 -16 -22 -27 -25 -25 -3 2 -15 -10 -25 -26 -11 -16 -25 -29
-32 -29 -7 0 -17 -9 -23 -21 -7 -11 -14 -18 -17 -15 -7 6 -43 -32 -43 -46 0
-4 -7 -8 -15 -8 -8 0 -15 -7 -15 -17 0 -9 -3 -14 -6 -10 -4 3 -28 -16 -54 -43
-32 -33 -51 -46 -59 -39 -8 6 -8 6 -1 -3 15 -18 12 -26 -12 -31 -55 -10 720
-18 1382 -14 268 2 299 4 335 21 22 11 47 20 55 21 8 1 32 10 54 19 21 9 46
16 56 16 9 0 45 18 79 40 34 22 66 40 71 40 6 0 10 4 10 9 0 5 8 12 18 15 9 3
28 23 42 43 14 20 31 43 38 50 7 7 10 13 5 13 -4 0 -3 4 2 8 6 4 23 22 38 40
l27 34 0 748 0 748 -25 23 c-13 13 -25 29 -25 34 0 6 -23 34 -50 64 -28 29
-50 57 -50 62 0 20 -76 75 -130 95 -33 12 -62 19 -65 16 -3 -3 -5 0 -5 6 0 7
-3 11 -7 10 -8 -2 -200 60 -218 71 -20 11 -43 12 -335 16 -162 2 -412 6 -555
10 -441 10 -785 13 -785 5z m1491 -1011 l50 -51 -3 -96 -3 -96 -49 -30 c-46
-29 -52 -30 -173 -31 -102 -1 -126 2 -133 15 -9 18 -12 202 -4 282 l6 56 130
1 130 2 49 -52z"/>
<path d="M721 836 c-1 -147 0 -166 16 -174 12 -7 20 -6 29 5 10 14 14 14 41 1
34 -17 48 -16 96 7 74 35 85 149 19 210 -34 31 -115 36 -131 8 -8 -14 -10 -3
-11 45 0 62 0 62 -29 62 l-29 0 -1 -164z m174 -1 c15 -14 25 -36 25 -53 0 -27
-30 -71 -50 -73 -6 -1 -16 -2 -22 -3 -19 -3 -51 14 -63 33 -20 34 -17 70 9 96
32 32 70 32 101 0z"/>
<path d="M1882 978 c2 -17 10 -23 31 -24 22 -1 27 3 27 22 0 20 -5 24 -31 24
-26 0 -30 -3 -27 -22z"/>
<path d="M3380 980 c0 -13 7 -18 20 -17 18 1 38 26 22 28 -4 0 -15 2 -24 4
-12 2 -18 -3 -18 -15z"/>
<path d="M60 821 c0 -158 0 -160 23 -163 42 -6 159 11 183 27 39 26 64 75 64
127 0 114 -64 168 -200 168 l-70 0 0 -159z m172 88 c51 -27 59 -126 14 -165
-23 -20 -112 -42 -123 -30 -10 9 -8 206 2 209 16 6 88 -4 107 -14z"/>
<path d="M2514 970 c-17 -6 -18 -18 -16 -140 2 -74 5 -137 8 -141 2 -4 -2 -10
-8 -12 -14 -6 76 -10 127 -7 17 1 32 6 33 11 2 5 7 7 11 5 4 -3 20 4 37 15 16
10 25 19 20 19 -6 0 -1 7 10 16 10 8 12 12 4 8 -12 -6 -13 -5 -3 7 17 21 35
72 23 64 -6 -4 -10 10 -10 34 0 23 -5 41 -11 41 -5 0 -8 4 -4 9 8 13 -41 60
-68 66 -39 8 -134 11 -153 5z m101 -50 c3 -5 14 -10 24 -10 32 0 59 -36 59
-79 1 -32 -3 -41 -16 -42 -11 0 -12 -3 -4 -6 19 -8 14 -31 -12 -48 -33 -22
-66 -27 -66 -10 0 8 -4 16 -9 19 -5 3 -8 -2 -7 -11 0 -11 -7 -18 -20 -19 -20
-1 -22 5 -28 98 -3 55 -4 104 -1 109 8 12 72 12 80 -1z"/>
<path d="M453 891 c-17 -11 -34 -29 -38 -40 -3 -12 -10 -21 -15 -21 -15 0 -3
-87 16 -115 18 -27 78 -61 104 -59 61 4 120 57 127 114 14 101 -105 175 -194
121z m129 -61 c37 -45 0 -122 -58 -122 -32 0 -74 41 -74 73 0 24 27 55 60 67
35 13 50 9 72 -18z"/>
<path d="M1042 788 l3 -123 25 0 c24 0 25 2 26 70 1 82 15 115 49 115 25 0 34
14 27 43 -5 20 -42 23 -60 5 -9 -9 -15 -9 -24 0 -7 7 -20 12 -30 12 -17 0 -18
-9 -16 -122z"/>
<path d="M1258 898 c-3 -7 -4 -53 -3 -101 3 -92 18 -127 55 -127 9 0 21 -5 27
-11 9 -9 22 -7 52 8 39 19 40 19 45 1 4 -16 8 -18 25 -8 19 10 21 20 21 130
l0 120 -30 0 -30 0 0 -83 c0 -91 -13 -117 -60 -117 -38 0 -49 27 -50 118 0 80
-1 82 -24 82 -13 0 -26 -6 -28 -12z"/>
<path d="M1567 903 c-2 -5 -4 -60 -3 -123 l1 -115 28 -3 27 -3 0 80 c0 59 4
84 16 95 18 19 80 21 90 4 4 -6 8 -48 8 -92 1 -80 1 -81 26 -81 25 0 25 0 25
98 0 96 -1 100 -28 123 -33 28 -97 33 -121 8 -15 -14 -17 -14 -22 0 -6 16 -39
22 -47 9z"/>
<path d="M1880 785 l0 -126 28 3 27 3 0 120 0 120 -27 3 -28 3 0 -126z"/>
<path d="M2075 898 c-47 -27 -65 -57 -65 -111 0 -64 18 -93 73 -117 40 -18 81
-14 115 13 8 7 12 5 12 -6 0 -16 24 -30 34 -20 3 4 6 62 6 130 l0 123 -24 0
c-13 0 -26 -6 -29 -12 -4 -10 -7 -10 -18 0 -16 15 -77 15 -104 0z m88 -47 c13
-5 30 -23 37 -40 11 -26 10 -35 -7 -63 -31 -53 -99 -51 -126 3 -17 36 -14 53
16 87 22 24 42 27 80 13z"/>
<path d="M2905 900 c-11 -4 -23 -6 -27 -3 -5 2 -8 0 -8 -5 0 -5 -9 -12 -21
-15 -12 -3 -18 -10 -15 -16 4 -6 2 -28 -5 -50 -29 -98 81 -183 168 -130 20 13
30 25 26 35 -6 17 -32 15 -52 -4 -17 -16 -62 -7 -74 14 -5 8 -12 12 -18 9 -5
-4 -9 2 -9 13 0 17 8 19 76 18 42 -1 79 1 83 4 13 9 20 39 10 45 -5 4 -7 10
-4 15 3 5 -5 20 -17 35 -25 28 -82 46 -113 35z"/>
<path d="M3195 902 c-39 -5 -53 -17 -63 -55 -6 -24 -4 -35 11 -50 10 -10 16
-24 14 -31 -4 -9 7 -12 37 -12 37 1 41 -1 41 -24 0 -29 -17 -33 -56 -14 -22
11 -30 11 -45 -1 -17 -13 -17 -16 -4 -25 36 -25 87 -33 118 -19 17 7 29 16 26
20 -2 4 0 10 6 14 14 9 13 58 -2 73 -7 7 -18 12 -26 12 -16 0 -62 45 -62 60 0
6 18 8 39 5 43 -5 62 14 35 35 -8 7 -14 9 -14 5 0 -4 -6 -3 -12 2 -7 5 -26 7
-43 5z"/>
<path d="M3393 897 c-4 -7 -8 -60 -8 -119 -1 -104 0 -108 21 -108 21 0 21 4
20 115 0 81 -4 116 -13 119 -7 3 -16 0 -20 -7z"/>
<path d="M3604 899 c-72 -21 -101 -95 -65 -170 11 -24 20 -40 21 -36 0 4 10 2
23 -5 29 -16 69 -16 85 -1 20 19 30 16 30 -12 0 -48 -57 -71 -111 -45 -24 12
-30 12 -38 -1 -23 -36 87 -72 141 -44 39 20 41 26 45 100 2 35 6 69 10 74 3 6
3 11 -2 11 -4 0 -7 27 -6 60 2 62 -8 80 -32 60 -12 -10 -20 -9 -40 4 -13 9
-26 16 -27 15 -2 0 -17 -5 -34 -10z m67 -39 c10 0 19 -12 23 -31 8 -40 -2 -79
-20 -79 -8 0 -14 -4 -14 -9 0 -5 -16 -8 -37 -7 -41 2 -51 18 -52 77 -1 39 26
62 64 54 11 -3 27 -5 36 -5z"/>
<path d="M3853 898 c-4 -7 -8 -63 -9 -124 -1 -106 0 -110 20 -109 19 2 21 9
23 81 2 67 6 82 25 97 21 18 63 20 84 5 10 -7 15 -66 15 -155 -1 -20 23 -38
39 -28 4 2 7 46 5 98 -2 84 -4 95 -26 117 -26 26 -57 30 -112 15 -17 -4 -33
-3 -41 4 -11 9 -16 9 -23 -1z"/>
</g>
</svg>
