<?xml version="1.0" standalone="no"?>
<!DOCTYPE svg PUBLIC "-//W3C//DTD SVG 20010904//EN"
 "http://www.w3.org/TR/2001/REC-SVG-20010904/DTD/svg10.dtd">
<svg version="1.0" xmlns="http://www.w3.org/2000/svg"
 width="344.000000pt" height="344.000000pt" viewBox="0 0 344.000000 344.000000"
 preserveAspectRatio="xMidYMid meet">
<metadata>
Created by potrace 1.11, written by Peter Selinger 2001-2013
</metadata>
<g transform="translate(0.000000,344.000000) scale(0.100000,-0.100000)"
fill="#000000" stroke="none">
<path d="M1532 3029 c-78 -104 -142 -193 -142 -198 0 -5 19 -12 41 -16 186
-32 298 16 511 214 l48 45 -32 16 c-32 15 -131 60 -228 103 -25 11 -47 21 -50
23 -3 1 -70 -83 -148 -187z"/>
<path d="M989 2631 c-4 -36 0 -2004 5 -2008 7 -8 1324 -8 1332 0 8 7 9 256 1
263 -3 3 -239 7 -524 7 l-518 2 -3 298 -2 297 464 0 465 0 -1 140 -1 140 -51
1 c-28 0 -237 0 -463 0 -380 0 -413 2 -414 17 -1 23 -1 564 0 578 1 8 144 11
504 12 276 0 513 1 527 1 l25 1 0 128 0 127 -673 1 c-369 0 -672 -2 -673 -5z"/>
</g>
</svg>
